<svg xmlns="http://www.w3.org/2000/svg" width="1200" height="630" viewBox="0 0 1200 630" fill="none">
  <defs>
    <linearGradient id="bg" x1="0" y1="0" x2="1200" y2="630" gradientUnits="userSpaceOnUse">
      <stop stop-color="#070b13"/><stop offset="0.55" stop-color="#0a1120"/><stop offset="1" stop-color="#0c1426"/>
    </linearGradient>
    <linearGradient id="acc" x1="0" y1="0" x2="1" y2="1"><stop stop-color="#22d3ee"/><stop offset="1" stop-color="#3b82f6"/></linearGradient>
    <radialGradient id="g1" cx="0.80" cy="0.22" r="0.6"><stop stop-color="#22d3ee" stop-opacity="0.28"/><stop offset="1" stop-color="#22d3ee" stop-opacity="0"/></radialGradient>
    <radialGradient id="g2" cx="0.10" cy="0.95" r="0.7"><stop stop-color="#3b82f6" stop-opacity="0.16"/><stop offset="1" stop-color="#3b82f6" stop-opacity="0"/></radialGradient>
    <radialGradient id="panelGlow" cx="0.5" cy="0.3" r="0.8"><stop stop-color="#22d3ee" stop-opacity="0.14"/><stop offset="1" stop-color="#22d3ee" stop-opacity="0"/></radialGradient>
    <pattern id="dots" width="34" height="34" patternUnits="userSpaceOnUse"><circle cx="2" cy="2" r="1.4" fill="#ffffff" fill-opacity="0.05"/></pattern>
    <linearGradient id="glass" x1="0" y1="0" x2="0" y2="1"><stop stop-color="#ffffff" stop-opacity="0.07"/><stop offset="1" stop-color="#ffffff" stop-opacity="0.012"/></linearGradient>
  </defs>

  <rect width="1200" height="630" fill="url(#bg)"/>
  <rect width="1200" height="630" fill="url(#dots)"/>
  <circle cx="930" cy="150" r="430" fill="none" stroke="#22d3ee" stroke-opacity="0.10" stroke-width="1.5"/>
  <circle cx="930" cy="150" r="300" fill="none" stroke="#22d3ee" stroke-opacity="0.07" stroke-width="1.5"/>
  <rect width="1200" height="630" fill="url(#g1)"/>
  <rect width="1200" height="630" fill="url(#g2)"/>

  <!-- glass illustration panel -->
  <g transform="translate(716 119)">
    <rect x="0" y="0" width="404" height="392" rx="30" fill="url(#glass)" stroke="#22d3ee" stroke-width="1.5" stroke-opacity="0.45"/>
    <rect x="0" y="0" width="404" height="392" rx="30" fill="url(#panelGlow)"/>
    <g transform="translate(202 196)"><line x1="6" y1="-150" x2="-22" y2="150" stroke="#ffffff" stroke-opacity="0.14" stroke-width="2" stroke-dasharray="6 8"/><g fill="#0c1526" stroke="url(#acc)" stroke-width="2.2"><polygon points="-62.6,-109.0 -62.6,-75.0 -92.0,-58.0 -121.4,-75.0 -121.4,-109.0 -92.0,-126.0" fill="#0c1526" fill-opacity="1"/><polygon points="-120.6,-19.0 -120.6,15.0 -150.0,32.0 -179.4,15.0 -179.4,-19.0 -150.0,-36.0" fill="#0c1526" fill-opacity="1"/><polygon points="-62.6,71.0 -62.6,105.0 -92.0,122.0 -121.4,105.0 -121.4,71.0 -92.0,54.0" fill="#0c1526" fill-opacity="1"/><polygon points="-4.6,-19.0 -4.6,15.0 -34.0,32.0 -63.4,15.0 -63.4,-19.0 -34.0,-36.0" fill="#0c1526" fill-opacity="1"/><polygon points="-62.6,-19.0 -62.6,15.0 -92.0,32.0 -121.4,15.0 -121.4,-19.0 -92.0,-36.0" fill="url(#acc)" fill-opacity="0.9"/></g><g stroke="url(#acc)" stroke-width="1.6" stroke-opacity="0.5"><line x1="-92" y1="-92" x2="-92" y2="-2"/><line x1="-150" y1="-2" x2="-92" y2="-2"/><line x1="-34" y1="-2" x2="-92" y2="-2"/><line x1="-92" y1="88" x2="-92" y2="-2"/></g><rect x="58" y="-96" width="118" height="50" rx="11" fill="#0c1526" stroke="url(#acc)" stroke-width="2.2"/><path d="M 78 -84 l -10 16 h 9 l -4 12 l 14 -18 h -9 z" fill="url(#acc)"/><rect x="100" y="-79" width="58" height="8" rx="4" fill="#ffffff" fill-opacity="0.4"/><rect x="100" y="-66" width="38" height="6" rx="3" fill="#ffffff" fill-opacity="0.2"/><rect x="58" y="-30" width="118" height="50" rx="11" fill="#0c1526" stroke="url(#acc)" stroke-width="2.2"/><path d="M 78 -18 l -10 16 h 9 l -4 12 l 14 -18 h -9 z" fill="url(#acc)"/><rect x="100" y="-13" width="58" height="8" rx="4" fill="#ffffff" fill-opacity="0.4"/><rect x="100" y="0" width="38" height="6" rx="3" fill="#ffffff" fill-opacity="0.2"/><rect x="58" y="36" width="118" height="50" rx="11" fill="#0c1526" stroke="url(#acc)" stroke-width="2.2"/><path d="M 78 48 l -10 16 h 9 l -4 12 l 14 -18 h -9 z" fill="url(#acc)"/><rect x="100" y="53" width="58" height="8" rx="4" fill="#ffffff" fill-opacity="0.4"/><rect x="100" y="66" width="38" height="6" rx="3" fill="#ffffff" fill-opacity="0.2"/></g>
  </g>

  <!-- category pill -->
  <g transform="translate(80 96)">
    <rect x="0" y="0" width="103" height="40" rx="20" fill="#22d3ee" fill-opacity="0.12" stroke="#22d3ee" stroke-opacity="0.5" stroke-width="1.2"/>
    <circle cx="22" cy="20" r="4.5" fill="url(#acc)"/>
    <text x="38" y="27" fill="#22d3ee" font-size="19" font-weight="700" letter-spacing="2.5" font-family="Space Grotesk, Segoe UI, Arial, sans-serif">CLOUD</text>
  </g>

  <text x="80" y="196" fill="#ffffff" font-size="52" font-weight="700" letter-spacing="-1" font-family="Space Grotesk, Segoe UI, Arial, sans-serif">Kubernetes or</text><text x="80" y="260" fill="#ffffff" font-size="52" font-weight="700" letter-spacing="-1" font-family="Space Grotesk, Segoe UI, Arial, sans-serif">Serverless?</text>
  <rect x="80" y="288" width="92" height="6" rx="3" fill="url(#acc)"/>
  <text x="80" y="358" fill="#ffffff" fill-opacity="0.7" font-size="25" font-weight="500" font-family="Space Grotesk, Segoe UI, Arial, sans-serif">A 2026 decision tree for growth-stage teams.</text>

  <line x1="80" y1="556" x2="1120" y2="556" stroke="#ffffff" stroke-opacity="0.08" stroke-width="1"/>
  <text x="80" y="592" fill="#ffffff" fill-opacity="0.5" font-size="21" font-weight="700" letter-spacing="2.5" font-family="Space Grotesk, Segoe UI, Arial, sans-serif">INFINITI TECH PARTNERS</text>
  <text x="1120" y="592" text-anchor="end" fill="#22d3ee" fill-opacity="0.7" font-size="19" font-weight="600" font-family="Space Grotesk, Segoe UI, Arial, sans-serif">infinititechpartners.com</text>
</svg>