<svg xmlns="http://www.w3.org/2000/svg" width="1200" height="630" viewBox="0 0 1200 630" fill="none">
  <defs>
    <linearGradient id="bg" x1="0" y1="0" x2="1200" y2="630" gradientUnits="userSpaceOnUse"><stop stop-color="#080c15"/><stop offset="1" stop-color="#0d1524"/></linearGradient>
    <linearGradient id="acc" x1="0" y1="0" x2="1" y2="1"><stop stop-color="#3b82f6"/><stop offset="1" stop-color="#818cf8"/></linearGradient>
    <radialGradient id="glow" cx="0.82" cy="0.30" r="0.55"><stop stop-color="#3b82f6" stop-opacity="0.22"/><stop offset="1" stop-color="#3b82f6" stop-opacity="0"/></radialGradient>
    <pattern id="grid" width="42" height="42" patternUnits="userSpaceOnUse"><path d="M42 0H0V42" fill="none" stroke="#ffffff" stroke-opacity="0.04"/></pattern>
  </defs>
  <rect width="1200" height="630" fill="url(#bg)"/><rect width="1200" height="630" fill="url(#grid)"/><rect width="1200" height="630" fill="url(#glow)"/>
  <g transform="translate(872 188)">
    <rect x="0" y="0" width="248" height="248" rx="44" fill="#0b1320" stroke="url(#acc)" stroke-width="2" stroke-opacity="0.55"/>
    <rect x="0" y="0" width="248" height="248" rx="44" fill="url(#acc)" fill-opacity="0.05"/>
    <g transform="translate(64 64) scale(1.2)" stroke="url(#acc)" stroke-width="2.5" stroke-linecap="round" fill="none">
      <circle cx="60" cy="45" r="16" fill="url(#acc)" fill-opacity="0.18" stroke="url(#acc)" stroke-width="2.5"/>
      <line x1="60" y1="45" x2="94" y2="45"/>
      <line x1="60" y1="45" x2="77" y2="15"/>
      <line x1="60" y1="45" x2="43" y2="15"/>
      <line x1="60" y1="45" x2="26" y2="45"/>
      <line x1="60" y1="45" x2="43" y2="75"/>
      <line x1="60" y1="45" x2="77" y2="75"/>
      <circle cx="94" cy="45" r="9" fill="#0b1320"/>
      <circle cx="77" cy="15" r="9" fill="#0b1320"/>
      <circle cx="43" cy="15" r="9" fill="#0b1320"/>
      <circle cx="26" cy="45" r="9" fill="#0b1320"/>
      <circle cx="43" cy="75" r="9" fill="#0b1320"/>
      <circle cx="77" cy="75" r="9" fill="#0b1320"/>
    </g>
  </g>
  <rect x="80" y="104" width="56" height="6" rx="3" fill="url(#acc)"/>
  <text x="80" y="160" fill="#3b82f6" font-size="26" font-weight="700" letter-spacing="3" font-family="Space Grotesk, Segoe UI, sans-serif">CLOUD</text>
  <text x="80" y="232" fill="#ffffff" font-size="50" font-weight="700" font-family="Space Grotesk, Segoe UI, sans-serif">Kubernetes or Serverless?</text>
  <text x="80" y="294" fill="#ffffff" font-size="50" font-weight="700" font-family="Space Grotesk, Segoe UI, sans-serif">The 2026 Decision Tree</text>
  <text x="80" y="356" fill="#ffffff" font-size="50" font-weight="700" font-family="Space Grotesk, Segoe UI, sans-serif">for Growth-Stage CTOs</text>
  <rect x="80" y="438" width="8" height="34" rx="4" fill="url(#acc)"/>
  <text x="104" y="464" fill="#ffffff" fill-opacity="0.72" font-size="28" font-weight="500" font-family="Space Grotesk, Segoe UI, sans-serif">Match the layer to the workload &#8212; bills follow.</text>
  <text x="80" y="588" fill="#ffffff" fill-opacity="0.45" font-size="22" font-weight="600" letter-spacing="2" font-family="Space Grotesk, Segoe UI, sans-serif">INFINITI TECH PARTNERS</text>
  <text x="1120" y="588" text-anchor="end" fill="#3b82f6" fill-opacity="0.6" font-size="20" font-weight="500" font-family="Space Grotesk, Segoe UI, sans-serif">infinititechpartners.com</text>
</svg>
