<svg xmlns="http://www.w3.org/2000/svg" width="1200" height="630" viewBox="0 0 1200 630" fill="none">
  <defs>
    <linearGradient id="bg" x1="0" y1="0" x2="1200" y2="630" gradientUnits="userSpaceOnUse">
      <stop stop-color="#070b13"/><stop offset="0.55" stop-color="#0a1120"/><stop offset="1" stop-color="#0c1426"/>
    </linearGradient>
    <linearGradient id="acc" x1="0" y1="0" x2="1" y2="1"><stop stop-color="#a78bfa"/><stop offset="1" stop-color="#ec4899"/></linearGradient>
    <radialGradient id="g1" cx="0.80" cy="0.22" r="0.6"><stop stop-color="#a78bfa" stop-opacity="0.28"/><stop offset="1" stop-color="#a78bfa" stop-opacity="0"/></radialGradient>
    <radialGradient id="g2" cx="0.10" cy="0.95" r="0.7"><stop stop-color="#ec4899" stop-opacity="0.16"/><stop offset="1" stop-color="#ec4899" stop-opacity="0"/></radialGradient>
    <radialGradient id="panelGlow" cx="0.5" cy="0.3" r="0.8"><stop stop-color="#a78bfa" stop-opacity="0.14"/><stop offset="1" stop-color="#a78bfa" stop-opacity="0"/></radialGradient>
    <pattern id="dots" width="34" height="34" patternUnits="userSpaceOnUse"><circle cx="2" cy="2" r="1.4" fill="#ffffff" fill-opacity="0.05"/></pattern>
    <linearGradient id="glass" x1="0" y1="0" x2="0" y2="1"><stop stop-color="#ffffff" stop-opacity="0.07"/><stop offset="1" stop-color="#ffffff" stop-opacity="0.012"/></linearGradient>
  </defs>

  <rect width="1200" height="630" fill="url(#bg)"/>
  <rect width="1200" height="630" fill="url(#dots)"/>
  <circle cx="930" cy="150" r="430" fill="none" stroke="#a78bfa" stroke-opacity="0.10" stroke-width="1.5"/>
  <circle cx="930" cy="150" r="300" fill="none" stroke="#a78bfa" stroke-opacity="0.07" stroke-width="1.5"/>
  <rect width="1200" height="630" fill="url(#g1)"/>
  <rect width="1200" height="630" fill="url(#g2)"/>

  <!-- glass illustration panel -->
  <g transform="translate(716 119)">
    <rect x="0" y="0" width="404" height="392" rx="30" fill="url(#glass)" stroke="#a78bfa" stroke-width="1.5" stroke-opacity="0.45"/>
    <rect x="0" y="0" width="404" height="392" rx="30" fill="url(#panelGlow)"/>
    <g transform="translate(202 196)"><g stroke="url(#acc)" stroke-width="3" fill="none" stroke-linecap="round" opacity="0.8"><path d="M -64 -64 C 0 -64 0 0 -8 0"/><path d="M -64 78 C 0 78 0 6 -8 6"/><path d="M 56 3 L 100 3"/></g><g transform="translate(-118 -88)" stroke="url(#acc)" stroke-width="2.5" fill="#0c1526" stroke-linejoin="round"><path d="M 0 8 L 0 40 C 0 48 54 48 54 40 L 54 8"/><ellipse cx="27" cy="8" rx="27" ry="9"/><path d="M 0 24 C 0 32 54 32 54 24" fill="none"/></g><g transform="translate(-120 50)" stroke="url(#acc)" stroke-width="2.5" fill="#0c1526" stroke-linejoin="round"><rect x="0" y="0" width="46" height="56" rx="6"/><line x1="10" y1="16" x2="36" y2="16" stroke-width="3"/><line x1="10" y1="28" x2="36" y2="28" stroke-width="3"/><line x1="10" y1="40" x2="26" y2="40" stroke-width="3"/></g><g transform="translate(-8 -28)"><rect x="0" y="0" width="64" height="64" rx="14" fill="url(#acc)" fill-opacity="0.16" stroke="url(#acc)" stroke-width="2.5"/><line x1="16" y1="-10" x2="16" y2="0" stroke="url(#acc)" stroke-width="2.5"/><line x1="16" y1="64" x2="16" y2="74" stroke="url(#acc)" stroke-width="2.5"/><line x1="-10" y1="16" x2="0" y2="16" stroke="url(#acc)" stroke-width="2.5"/><line x1="64" y1="16" x2="74" y2="16" stroke="url(#acc)" stroke-width="2.5"/><line x1="32" y1="-10" x2="32" y2="0" stroke="url(#acc)" stroke-width="2.5"/><line x1="32" y1="64" x2="32" y2="74" stroke="url(#acc)" stroke-width="2.5"/><line x1="-10" y1="32" x2="0" y2="32" stroke="url(#acc)" stroke-width="2.5"/><line x1="64" y1="32" x2="74" y2="32" stroke="url(#acc)" stroke-width="2.5"/><line x1="48" y1="-10" x2="48" y2="0" stroke="url(#acc)" stroke-width="2.5"/><line x1="48" y1="64" x2="48" y2="74" stroke="url(#acc)" stroke-width="2.5"/><line x1="-10" y1="48" x2="0" y2="48" stroke="url(#acc)" stroke-width="2.5"/><line x1="64" y1="48" x2="74" y2="48" stroke="url(#acc)" stroke-width="2.5"/><rect x="18" y="18" width="28" height="28" rx="6" fill="url(#acc)"/></g><g transform="translate(100 -16)"><circle cx="20" cy="20" r="30" fill="#0c1526" stroke="url(#acc)" stroke-width="2.5"/><circle cx="20" cy="20" r="9" fill="url(#acc)"/><path d="M 20 -2 A 22 22 0 0 1 40 16" stroke="url(#acc)" stroke-width="2.5" fill="none" stroke-linecap="round"/></g></g>
  </g>

  <!-- category pill -->
  <g transform="translate(80 96)">
    <rect x="0" y="0" width="58" height="40" rx="20" fill="#a78bfa" fill-opacity="0.12" stroke="#a78bfa" stroke-opacity="0.5" stroke-width="1.2"/>
    <circle cx="22" cy="20" r="4.5" fill="url(#acc)"/>
    <text x="38" y="27" fill="#a78bfa" font-size="19" font-weight="700" letter-spacing="2.5" font-family="Space Grotesk, Segoe UI, Arial, sans-serif">AI</text>
  </g>

  <text x="80" y="196" fill="#ffffff" font-size="52" font-weight="700" letter-spacing="-1" font-family="Space Grotesk, Segoe UI, Arial, sans-serif">RAG vs Fine-Tuning</text><text x="80" y="260" fill="#ffffff" font-size="52" font-weight="700" letter-spacing="-1" font-family="Space Grotesk, Segoe UI, Arial, sans-serif">vs Agents</text>
  <rect x="80" y="288" width="92" height="6" rx="3" fill="url(#acc)"/>
  <text x="80" y="358" fill="#ffffff" fill-opacity="0.7" font-size="25" font-weight="500" font-family="Space Grotesk, Segoe UI, Arial, sans-serif">Choosing the right LLM pattern in 2026.</text>

  <line x1="80" y1="556" x2="1120" y2="556" stroke="#ffffff" stroke-opacity="0.08" stroke-width="1"/>
  <text x="80" y="592" fill="#ffffff" fill-opacity="0.5" font-size="21" font-weight="700" letter-spacing="2.5" font-family="Space Grotesk, Segoe UI, Arial, sans-serif">INFINITI TECH PARTNERS</text>
  <text x="1120" y="592" text-anchor="end" fill="#a78bfa" fill-opacity="0.7" font-size="19" font-weight="600" font-family="Space Grotesk, Segoe UI, Arial, sans-serif">infinititechpartners.com</text>
</svg>