<svg xmlns="http://www.w3.org/2000/svg" width="1200" height="630" viewBox="0 0 1200 630" fill="none">
  <defs>
    <linearGradient id="bg" x1="0" y1="0" x2="1200" y2="630" gradientUnits="userSpaceOnUse">
      <stop stop-color="#070b13"/><stop offset="0.55" stop-color="#0a1120"/><stop offset="1" stop-color="#0c1426"/>
    </linearGradient>
    <linearGradient id="acc" x1="0" y1="0" x2="1" y2="1"><stop stop-color="#ff8a3d"/><stop offset="1" stop-color="#f7b733"/></linearGradient>
    <radialGradient id="g1" cx="0.80" cy="0.22" r="0.6"><stop stop-color="#ff8a3d" stop-opacity="0.28"/><stop offset="1" stop-color="#ff8a3d" stop-opacity="0"/></radialGradient>
    <radialGradient id="g2" cx="0.10" cy="0.95" r="0.7"><stop stop-color="#f7b733" stop-opacity="0.16"/><stop offset="1" stop-color="#f7b733" stop-opacity="0"/></radialGradient>
    <radialGradient id="panelGlow" cx="0.5" cy="0.3" r="0.8"><stop stop-color="#ff8a3d" stop-opacity="0.14"/><stop offset="1" stop-color="#ff8a3d" stop-opacity="0"/></radialGradient>
    <pattern id="dots" width="34" height="34" patternUnits="userSpaceOnUse"><circle cx="2" cy="2" r="1.4" fill="#ffffff" fill-opacity="0.05"/></pattern>
    <linearGradient id="glass" x1="0" y1="0" x2="0" y2="1"><stop stop-color="#ffffff" stop-opacity="0.07"/><stop offset="1" stop-color="#ffffff" stop-opacity="0.012"/></linearGradient>
  </defs>

  <rect width="1200" height="630" fill="url(#bg)"/>
  <rect width="1200" height="630" fill="url(#dots)"/>
  <circle cx="930" cy="150" r="430" fill="none" stroke="#ff8a3d" stroke-opacity="0.10" stroke-width="1.5"/>
  <circle cx="930" cy="150" r="300" fill="none" stroke="#ff8a3d" stroke-opacity="0.07" stroke-width="1.5"/>
  <rect width="1200" height="630" fill="url(#g1)"/>
  <rect width="1200" height="630" fill="url(#g2)"/>

  <!-- glass illustration panel -->
  <g transform="translate(716 119)">
    <rect x="0" y="0" width="404" height="392" rx="30" fill="url(#glass)" stroke="#ff8a3d" stroke-width="1.5" stroke-opacity="0.45"/>
    <rect x="0" y="0" width="404" height="392" rx="30" fill="url(#panelGlow)"/>
    <g transform="translate(202 196)"><g stroke="url(#acc)" fill="none" stroke-linecap="round" stroke-linejoin="round"><path d="M -70 -96 A 70 70 0 0 1 70 -96" stroke-width="9" stroke-opacity="0.9"/><path d="M -70 -96 A 70 70 0 0 1 40 -132" stroke-width="9" stroke="#ffffff" stroke-opacity="0.18"/><circle cx="0" cy="-96" r="6" fill="url(#acc)" stroke="none"/><line x1="0" y1="-96" x2="46" y2="-128" stroke-width="5"/></g><g opacity="1.0"><rect x="-138" y="-38" width="276" height="54" rx="12" fill="#0c1526" stroke="url(#acc)" stroke-width="1.5" stroke-opacity="0.5"/><circle cx="-110" cy="-11" r="16" fill="url(#acc)" fill-opacity="0.15" stroke="url(#acc)" stroke-width="2"/><path d="M -118 -11 l 5 6 l 11 -13" stroke="url(#acc)" stroke-width="3.5" fill="none" stroke-linecap="round" stroke-linejoin="round"/><rect x="-84" y="-21" width="120" height="9" rx="4.5" fill="#ffffff" fill-opacity="0.5"/><rect x="-84" y="-5" width="72" height="7" rx="3.5" fill="#ffffff" fill-opacity="0.22"/></g><g opacity="1.0"><rect x="-138" y="34" width="276" height="54" rx="12" fill="#0c1526" stroke="url(#acc)" stroke-width="1.5" stroke-opacity="0.5"/><circle cx="-110" cy="61" r="16" fill="url(#acc)" fill-opacity="0.15" stroke="url(#acc)" stroke-width="2"/><path d="M -118 61 l 5 6 l 11 -13" stroke="url(#acc)" stroke-width="3.5" fill="none" stroke-linecap="round" stroke-linejoin="round"/><rect x="-84" y="51" width="120" height="9" rx="4.5" fill="#ffffff" fill-opacity="0.5"/><rect x="-84" y="67" width="72" height="7" rx="3.5" fill="#ffffff" fill-opacity="0.22"/></g><g opacity="0.55"><rect x="-138" y="106" width="276" height="54" rx="12" fill="#0c1526" stroke="url(#acc)" stroke-width="1.5" stroke-opacity="0.5"/><circle cx="-110" cy="133" r="16" fill="url(#acc)" fill-opacity="0.15" stroke="url(#acc)" stroke-width="2"/><path d="M -118 133 l 5 6 l 11 -13" stroke="url(#acc)" stroke-width="3.5" fill="none" stroke-linecap="round" stroke-linejoin="round"/><rect x="-84" y="123" width="120" height="9" rx="4.5" fill="#ffffff" fill-opacity="0.5"/><rect x="-84" y="139" width="72" height="7" rx="3.5" fill="#ffffff" fill-opacity="0.22"/></g></g>
  </g>

  <!-- category pill -->
  <g transform="translate(80 96)">
    <rect x="0" y="0" width="193" height="40" rx="20" fill="#ff8a3d" fill-opacity="0.12" stroke="#ff8a3d" stroke-opacity="0.5" stroke-width="1.2"/>
    <circle cx="22" cy="20" r="4.5" fill="url(#acc)"/>
    <text x="38" y="27" fill="#ff8a3d" font-size="19" font-weight="700" letter-spacing="2.5" font-family="Space Grotesk, Segoe UI, Arial, sans-serif">ENGINEERING</text>
  </g>

  <text x="80" y="178" fill="#ffffff" font-size="52" font-weight="700" letter-spacing="-1" font-family="Space Grotesk, Segoe UI, Arial, sans-serif">What "Production-</text><text x="80" y="242" fill="#ffffff" font-size="52" font-weight="700" letter-spacing="-1" font-family="Space Grotesk, Segoe UI, Arial, sans-serif">Ready" Actually</text><text x="80" y="306" fill="#ffffff" font-size="52" font-weight="700" letter-spacing="-1" font-family="Space Grotesk, Segoe UI, Arial, sans-serif">Means</text>
  <rect x="80" y="334" width="92" height="6" rx="3" fill="url(#acc)"/>
  <text x="80" y="404" fill="#ffffff" fill-opacity="0.7" font-size="25" font-weight="500" font-family="Space Grotesk, Segoe UI, Arial, sans-serif">Why most MVPs aren't — and the bar that is.</text>

  <line x1="80" y1="556" x2="1120" y2="556" stroke="#ffffff" stroke-opacity="0.08" stroke-width="1"/>
  <text x="80" y="592" fill="#ffffff" fill-opacity="0.5" font-size="21" font-weight="700" letter-spacing="2.5" font-family="Space Grotesk, Segoe UI, Arial, sans-serif">INFINITI TECH PARTNERS</text>
  <text x="1120" y="592" text-anchor="end" fill="#ff8a3d" fill-opacity="0.7" font-size="19" font-weight="600" font-family="Space Grotesk, Segoe UI, Arial, sans-serif">infinititechpartners.com</text>
</svg>